<svg width="24" height="24" viewBox="0 0 24 24" fill="none" xmlns="http://www.w3.org/2000/svg">
<path fill-rule="evenodd" clip-rule="evenodd" d="M11.2947 19.2947C11.6842 19.6842 12.3158 19.6842 12.7053 19.2947C13.0946 18.9054 13.0949 18.2743 12.7059 17.8847L7.83 13L19 13C19.5523 13 20 12.5523 20 12C20 11.4477 19.5523 11 19 11L7.83 11L12.7059 6.11532C13.0949 5.72568 13.0946 5.0946 12.7053 4.70532C12.3158 4.31578 11.6842 4.31578 11.2947 4.70532L4 12L11.2947 19.2947Z" fill="black" fill-opacity="0.7"/>
<mask id="mask0_1_258198" style="mask-type:alpha" maskUnits="userSpaceOnUse" x="4" y="4" width="16" height="16">
<path fill-rule="evenodd" clip-rule="evenodd" d="M11.2947 19.2947C11.6842 19.6842 12.3158 19.6842 12.7053 19.2947C13.0946 18.9054 13.0949 18.2743 12.7059 17.8847L7.83 13L19 13C19.5523 13 20 12.5523 20 12C20 11.4477 19.5523 11 19 11L7.83 11L12.7059 6.11532C13.0949 5.72568 13.0946 5.0946 12.7053 4.70532C12.3158 4.31578 11.6842 4.31578 11.2947 4.70532L4 12L11.2947 19.2947Z" fill="white"/>
</mask>
<g mask="url(#mask0_1_258198)">
<rect x="24" y="24" width="24" height="24" transform="rotate(180 24 24)" fill="#C2D1D9"/>
</g>
</svg>
